<?xml version="1.0" encoding="utf-8" standalone="no"?>
<!DOCTYPE svg PUBLIC "-//W3C//DTD SVG 1.1//EN"
  "http://www.w3.org/Graphics/SVG/1.1/DTD/svg11.dtd">
<svg xmlns:xlink="http://www.w3.org/1999/xlink" width="864pt" height="432pt" viewBox="0 0 864 432" xmlns="http://www.w3.org/2000/svg" version="1.1">
 <metadata>
  <rdf:RDF xmlns:dc="http://purl.org/dc/elements/1.1/" xmlns:cc="http://creativecommons.org/ns#" xmlns:rdf="http://www.w3.org/1999/02/22-rdf-syntax-ns#">
   <cc:Work>
    <dc:type rdf:resource="http://purl.org/dc/dcmitype/StillImage"/>
    <dc:date>2025-03-03T06:59:28.647165</dc:date>
    <dc:format>image/svg+xml</dc:format>
    <dc:creator>
     <cc:Agent>
      <dc:title>Matplotlib v3.10.0, https://matplotlib.org/</dc:title>
     </cc:Agent>
    </dc:creator>
   </cc:Work>
  </rdf:RDF>
 </metadata>
 <defs>
  <style type="text/css">*{stroke-linejoin: round; stroke-linecap: butt}</style>
 </defs>
 <g id="figure_1">
  <g id="patch_1">
   <path d="M 0 432 
L 864 432 
L 864 0 
L 0 0 
z
" style="fill: #ffffff"/>
  </g>
  <g id="axes_1">
   <g id="patch_2">
    <path d="M 108 384.48 
L 777.6 384.48 
L 777.6 51.84 
L 108 51.84 
z
" style="fill: #ffffff"/>
   </g>
   <g id="matplotlib.axis_1">
    <g id="xtick_1">
     <g id="line2d_1">
      <defs>
       <path id="m338318c845" d="M 0 0 
L 0 3.5 
" style="stroke: #000000; stroke-width: 0.8"/>
      </defs>
      <g>
       <use xlink:href="#m338318c845" x="138.436364" y="384.48" style="stroke: #000000; stroke-width: 0.8"/>
      </g>
     </g>
     <g id="text_1">
      <!-- 0 -->
      <g transform="translate(135.255114 399.078438) scale(0.1 -0.1)">
       <defs>
        <path id="DejaVuSans-30" d="M 2034 4250 
Q 1547 4250 1301 3770 
Q 1056 3291 1056 2328 
Q 1056 1369 1301 889 
Q 1547 409 2034 409 
Q 2525 409 2770 889 
Q 3016 1369 3016 2328 
Q 3016 3291 2770 3770 
Q 2525 4250 2034 4250 
z
M 2034 4750 
Q 2819 4750 3233 4129 
Q 3647 3509 3647 2328 
Q 3647 1150 3233 529 
Q 2819 -91 2034 -91 
Q 1250 -91 836 529 
Q 422 1150 422 2328 
Q 422 3509 836 4129 
Q 1250 4750 2034 4750 
z
" transform="scale(0.015625)"/>
       </defs>
       <use xlink:href="#DejaVuSans-30"/>
      </g>
     </g>
    </g>
    <g id="xtick_2">
     <g id="line2d_2">
      <g>
       <use xlink:href="#m338318c845" x="220.254545" y="384.48" style="stroke: #000000; stroke-width: 0.8"/>
      </g>
     </g>
     <g id="text_2">
      <!-- 25 -->
      <g transform="translate(213.892045 399.078438) scale(0.1 -0.1)">
       <defs>
        <path id="DejaVuSans-32" d="M 1228 531 
L 3431 531 
L 3431 0 
L 469 0 
L 469 531 
Q 828 903 1448 1529 
Q 2069 2156 2228 2338 
Q 2531 2678 2651 2914 
Q 2772 3150 2772 3378 
Q 2772 3750 2511 3984 
Q 2250 4219 1831 4219 
Q 1534 4219 1204 4116 
Q 875 4013 500 3803 
L 500 4441 
Q 881 4594 1212 4672 
Q 1544 4750 1819 4750 
Q 2544 4750 2975 4387 
Q 3406 4025 3406 3419 
Q 3406 3131 3298 2873 
Q 3191 2616 2906 2266 
Q 2828 2175 2409 1742 
Q 1991 1309 1228 531 
z
" transform="scale(0.015625)"/>
        <path id="DejaVuSans-35" d="M 691 4666 
L 3169 4666 
L 3169 4134 
L 1269 4134 
L 1269 2991 
Q 1406 3038 1543 3061 
Q 1681 3084 1819 3084 
Q 2600 3084 3056 2656 
Q 3513 2228 3513 1497 
Q 3513 744 3044 326 
Q 2575 -91 1722 -91 
Q 1428 -91 1123 -41 
Q 819 9 494 109 
L 494 744 
Q 775 591 1075 516 
Q 1375 441 1709 441 
Q 2250 441 2565 725 
Q 2881 1009 2881 1497 
Q 2881 1984 2565 2268 
Q 2250 2553 1709 2553 
Q 1456 2553 1204 2497 
Q 953 2441 691 2322 
L 691 4666 
z
" transform="scale(0.015625)"/>
       </defs>
       <use xlink:href="#DejaVuSans-32"/>
       <use xlink:href="#DejaVuSans-35" transform="translate(63.623047 0)"/>
      </g>
     </g>
    </g>
    <g id="xtick_3">
     <g id="line2d_3">
      <g>
       <use xlink:href="#m338318c845" x="302.072727" y="384.48" style="stroke: #000000; stroke-width: 0.8"/>
      </g>
     </g>
     <g id="text_3">
      <!-- 50 -->
      <g transform="translate(295.710227 399.078438) scale(0.1 -0.1)">
       <use xlink:href="#DejaVuSans-35"/>
       <use xlink:href="#DejaVuSans-30" transform="translate(63.623047 0)"/>
      </g>
     </g>
    </g>
    <g id="xtick_4">
     <g id="line2d_4">
      <g>
       <use xlink:href="#m338318c845" x="383.890909" y="384.48" style="stroke: #000000; stroke-width: 0.8"/>
      </g>
     </g>
     <g id="text_4">
      <!-- 75 -->
      <g transform="translate(377.528409 399.078438) scale(0.1 -0.1)">
       <defs>
        <path id="DejaVuSans-37" d="M 525 4666 
L 3525 4666 
L 3525 4397 
L 1831 0 
L 1172 0 
L 2766 4134 
L 525 4134 
L 525 4666 
z
" transform="scale(0.015625)"/>
       </defs>
       <use xlink:href="#DejaVuSans-37"/>
       <use xlink:href="#DejaVuSans-35" transform="translate(63.623047 0)"/>
      </g>
     </g>
    </g>
    <g id="xtick_5">
     <g id="line2d_5">
      <g>
       <use xlink:href="#m338318c845" x="465.709091" y="384.48" style="stroke: #000000; stroke-width: 0.8"/>
      </g>
     </g>
     <g id="text_5">
      <!-- 100 -->
      <g transform="translate(456.165341 399.078438) scale(0.1 -0.1)">
       <defs>
        <path id="DejaVuSans-31" d="M 794 531 
L 1825 531 
L 1825 4091 
L 703 3866 
L 703 4441 
L 1819 4666 
L 2450 4666 
L 2450 531 
L 3481 531 
L 3481 0 
L 794 0 
L 794 531 
z
" transform="scale(0.015625)"/>
       </defs>
       <use xlink:href="#DejaVuSans-31"/>
       <use xlink:href="#DejaVuSans-30" transform="translate(63.623047 0)"/>
       <use xlink:href="#DejaVuSans-30" transform="translate(127.246094 0)"/>
      </g>
     </g>
    </g>
    <g id="xtick_6">
     <g id="line2d_6">
      <g>
       <use xlink:href="#m338318c845" x="547.527273" y="384.48" style="stroke: #000000; stroke-width: 0.8"/>
      </g>
     </g>
     <g id="text_6">
      <!-- 125 -->
      <g transform="translate(537.983523 399.078438) scale(0.1 -0.1)">
       <use xlink:href="#DejaVuSans-31"/>
       <use xlink:href="#DejaVuSans-32" transform="translate(63.623047 0)"/>
       <use xlink:href="#DejaVuSans-35" transform="translate(127.246094 0)"/>
      </g>
     </g>
    </g>
    <g id="xtick_7">
     <g id="line2d_7">
      <g>
       <use xlink:href="#m338318c845" x="629.345455" y="384.48" style="stroke: #000000; stroke-width: 0.8"/>
      </g>
     </g>
     <g id="text_7">
      <!-- 150 -->
      <g transform="translate(619.801705 399.078438) scale(0.1 -0.1)">
       <use xlink:href="#DejaVuSans-31"/>
       <use xlink:href="#DejaVuSans-35" transform="translate(63.623047 0)"/>
       <use xlink:href="#DejaVuSans-30" transform="translate(127.246094 0)"/>
      </g>
     </g>
    </g>
    <g id="xtick_8">
     <g id="line2d_8">
      <g>
       <use xlink:href="#m338318c845" x="711.163636" y="384.48" style="stroke: #000000; stroke-width: 0.8"/>
      </g>
     </g>
     <g id="text_8">
      <!-- 175 -->
      <g transform="translate(701.619886 399.078438) scale(0.1 -0.1)">
       <use xlink:href="#DejaVuSans-31"/>
       <use xlink:href="#DejaVuSans-37" transform="translate(63.623047 0)"/>
       <use xlink:href="#DejaVuSans-35" transform="translate(127.246094 0)"/>
      </g>
     </g>
    </g>
    <g id="text_9">
     <!-- Time (samples) -->
     <g transform="translate(404.292188 412.756563) scale(0.1 -0.1)">
      <defs>
       <path id="DejaVuSans-54" d="M -19 4666 
L 3928 4666 
L 3928 4134 
L 2272 4134 
L 2272 0 
L 1638 0 
L 1638 4134 
L -19 4134 
L -19 4666 
z
" transform="scale(0.015625)"/>
       <path id="DejaVuSans-69" d="M 603 3500 
L 1178 3500 
L 1178 0 
L 603 0 
L 603 3500 
z
M 603 4863 
L 1178 4863 
L 1178 4134 
L 603 4134 
L 603 4863 
z
" transform="scale(0.015625)"/>
       <path id="DejaVuSans-6d" d="M 3328 2828 
Q 3544 3216 3844 3400 
Q 4144 3584 4550 3584 
Q 5097 3584 5394 3201 
Q 5691 2819 5691 2113 
L 5691 0 
L 5113 0 
L 5113 2094 
Q 5113 2597 4934 2840 
Q 4756 3084 4391 3084 
Q 3944 3084 3684 2787 
Q 3425 2491 3425 1978 
L 3425 0 
L 2847 0 
L 2847 2094 
Q 2847 2600 2669 2842 
Q 2491 3084 2119 3084 
Q 1678 3084 1418 2786 
Q 1159 2488 1159 1978 
L 1159 0 
L 581 0 
L 581 3500 
L 1159 3500 
L 1159 2956 
Q 1356 3278 1631 3431 
Q 1906 3584 2284 3584 
Q 2666 3584 2933 3390 
Q 3200 3197 3328 2828 
z
" transform="scale(0.015625)"/>
       <path id="DejaVuSans-65" d="M 3597 1894 
L 3597 1613 
L 953 1613 
Q 991 1019 1311 708 
Q 1631 397 2203 397 
Q 2534 397 2845 478 
Q 3156 559 3463 722 
L 3463 178 
Q 3153 47 2828 -22 
Q 2503 -91 2169 -91 
Q 1331 -91 842 396 
Q 353 884 353 1716 
Q 353 2575 817 3079 
Q 1281 3584 2069 3584 
Q 2775 3584 3186 3129 
Q 3597 2675 3597 1894 
z
M 3022 2063 
Q 3016 2534 2758 2815 
Q 2500 3097 2075 3097 
Q 1594 3097 1305 2825 
Q 1016 2553 972 2059 
L 3022 2063 
z
" transform="scale(0.015625)"/>
       <path id="DejaVuSans-20" transform="scale(0.015625)"/>
       <path id="DejaVuSans-28" d="M 1984 4856 
Q 1566 4138 1362 3434 
Q 1159 2731 1159 2009 
Q 1159 1288 1364 580 
Q 1569 -128 1984 -844 
L 1484 -844 
Q 1016 -109 783 600 
Q 550 1309 550 2009 
Q 550 2706 781 3412 
Q 1013 4119 1484 4856 
L 1984 4856 
z
" transform="scale(0.015625)"/>
       <path id="DejaVuSans-73" d="M 2834 3397 
L 2834 2853 
Q 2591 2978 2328 3040 
Q 2066 3103 1784 3103 
Q 1356 3103 1142 2972 
Q 928 2841 928 2578 
Q 928 2378 1081 2264 
Q 1234 2150 1697 2047 
L 1894 2003 
Q 2506 1872 2764 1633 
Q 3022 1394 3022 966 
Q 3022 478 2636 193 
Q 2250 -91 1575 -91 
Q 1294 -91 989 -36 
Q 684 19 347 128 
L 347 722 
Q 666 556 975 473 
Q 1284 391 1588 391 
Q 1994 391 2212 530 
Q 2431 669 2431 922 
Q 2431 1156 2273 1281 
Q 2116 1406 1581 1522 
L 1381 1569 
Q 847 1681 609 1914 
Q 372 2147 372 2553 
Q 372 3047 722 3315 
Q 1072 3584 1716 3584 
Q 2034 3584 2315 3537 
Q 2597 3491 2834 3397 
z
" transform="scale(0.015625)"/>
       <path id="DejaVuSans-61" d="M 2194 1759 
Q 1497 1759 1228 1600 
Q 959 1441 959 1056 
Q 959 750 1161 570 
Q 1363 391 1709 391 
Q 2188 391 2477 730 
Q 2766 1069 2766 1631 
L 2766 1759 
L 2194 1759 
z
M 3341 1997 
L 3341 0 
L 2766 0 
L 2766 531 
Q 2569 213 2275 61 
Q 1981 -91 1556 -91 
Q 1019 -91 701 211 
Q 384 513 384 1019 
Q 384 1609 779 1909 
Q 1175 2209 1959 2209 
L 2766 2209 
L 2766 2266 
Q 2766 2663 2505 2880 
Q 2244 3097 1772 3097 
Q 1472 3097 1187 3025 
Q 903 2953 641 2809 
L 641 3341 
Q 956 3463 1253 3523 
Q 1550 3584 1831 3584 
Q 2591 3584 2966 3190 
Q 3341 2797 3341 1997 
z
" transform="scale(0.015625)"/>
       <path id="DejaVuSans-70" d="M 1159 525 
L 1159 -1331 
L 581 -1331 
L 581 3500 
L 1159 3500 
L 1159 2969 
Q 1341 3281 1617 3432 
Q 1894 3584 2278 3584 
Q 2916 3584 3314 3078 
Q 3713 2572 3713 1747 
Q 3713 922 3314 415 
Q 2916 -91 2278 -91 
Q 1894 -91 1617 61 
Q 1341 213 1159 525 
z
M 3116 1747 
Q 3116 2381 2855 2742 
Q 2594 3103 2138 3103 
Q 1681 3103 1420 2742 
Q 1159 2381 1159 1747 
Q 1159 1113 1420 752 
Q 1681 391 2138 391 
Q 2594 391 2855 752 
Q 3116 1113 3116 1747 
z
" transform="scale(0.015625)"/>
       <path id="DejaVuSans-6c" d="M 603 4863 
L 1178 4863 
L 1178 0 
L 603 0 
L 603 4863 
z
" transform="scale(0.015625)"/>
       <path id="DejaVuSans-29" d="M 513 4856 
L 1013 4856 
Q 1481 4119 1714 3412 
Q 1947 2706 1947 2009 
Q 1947 1309 1714 600 
Q 1481 -109 1013 -844 
L 513 -844 
Q 928 -128 1133 580 
Q 1338 1288 1338 2009 
Q 1338 2731 1133 3434 
Q 928 4138 513 4856 
z
" transform="scale(0.015625)"/>
      </defs>
      <use xlink:href="#DejaVuSans-54"/>
      <use xlink:href="#DejaVuSans-69" transform="translate(57.958984 0)"/>
      <use xlink:href="#DejaVuSans-6d" transform="translate(85.742188 0)"/>
      <use xlink:href="#DejaVuSans-65" transform="translate(183.154297 0)"/>
      <use xlink:href="#DejaVuSans-20" transform="translate(244.677734 0)"/>
      <use xlink:href="#DejaVuSans-28" transform="translate(276.464844 0)"/>
      <use xlink:href="#DejaVuSans-73" transform="translate(315.478516 0)"/>
      <use xlink:href="#DejaVuSans-61" transform="translate(367.578125 0)"/>
      <use xlink:href="#DejaVuSans-6d" transform="translate(428.857422 0)"/>
      <use xlink:href="#DejaVuSans-70" transform="translate(526.269531 0)"/>
      <use xlink:href="#DejaVuSans-6c" transform="translate(589.746094 0)"/>
      <use xlink:href="#DejaVuSans-65" transform="translate(617.529297 0)"/>
      <use xlink:href="#DejaVuSans-73" transform="translate(679.052734 0)"/>
      <use xlink:href="#DejaVuSans-29" transform="translate(731.152344 0)"/>
     </g>
    </g>
   </g>
   <g id="matplotlib.axis_2">
    <g id="ytick_1">
     <g id="line2d_9">
      <defs>
       <path id="m9745d32a27" d="M 0 0 
L -3.5 0 
" style="stroke: #000000; stroke-width: 0.8"/>
      </defs>
      <g>
       <use xlink:href="#m9745d32a27" x="108" y="369.36" style="stroke: #000000; stroke-width: 0.8"/>
      </g>
     </g>
     <g id="text_10">
      <!-- 0.0 -->
      <g transform="translate(85.096875 373.159219) scale(0.1 -0.1)">
       <defs>
        <path id="DejaVuSans-2e" d="M 684 794 
L 1344 794 
L 1344 0 
L 684 0 
L 684 794 
z
" transform="scale(0.015625)"/>
       </defs>
       <use xlink:href="#DejaVuSans-30"/>
       <use xlink:href="#DejaVuSans-2e" transform="translate(63.623047 0)"/>
       <use xlink:href="#DejaVuSans-30" transform="translate(95.410156 0)"/>
      </g>
     </g>
    </g>
    <g id="ytick_2">
     <g id="line2d_10">
      <g>
       <use xlink:href="#m9745d32a27" x="108" y="308.88" style="stroke: #000000; stroke-width: 0.8"/>
      </g>
     </g>
     <g id="text_11">
      <!-- 0.2 -->
      <g transform="translate(85.096875 312.679219) scale(0.1 -0.1)">
       <use xlink:href="#DejaVuSans-30"/>
       <use xlink:href="#DejaVuSans-2e" transform="translate(63.623047 0)"/>
       <use xlink:href="#DejaVuSans-32" transform="translate(95.410156 0)"/>
      </g>
     </g>
    </g>
    <g id="ytick_3">
     <g id="line2d_11">
      <g>
       <use xlink:href="#m9745d32a27" x="108" y="248.4" style="stroke: #000000; stroke-width: 0.8"/>
      </g>
     </g>
     <g id="text_12">
      <!-- 0.4 -->
      <g transform="translate(85.096875 252.199219) scale(0.1 -0.1)">
       <defs>
        <path id="DejaVuSans-34" d="M 2419 4116 
L 825 1625 
L 2419 1625 
L 2419 4116 
z
M 2253 4666 
L 3047 4666 
L 3047 1625 
L 3713 1625 
L 3713 1100 
L 3047 1100 
L 3047 0 
L 2419 0 
L 2419 1100 
L 313 1100 
L 313 1709 
L 2253 4666 
z
" transform="scale(0.015625)"/>
       </defs>
       <use xlink:href="#DejaVuSans-30"/>
       <use xlink:href="#DejaVuSans-2e" transform="translate(63.623047 0)"/>
       <use xlink:href="#DejaVuSans-34" transform="translate(95.410156 0)"/>
      </g>
     </g>
    </g>
    <g id="ytick_4">
     <g id="line2d_12">
      <g>
       <use xlink:href="#m9745d32a27" x="108" y="187.92" style="stroke: #000000; stroke-width: 0.8"/>
      </g>
     </g>
     <g id="text_13">
      <!-- 0.6 -->
      <g transform="translate(85.096875 191.719219) scale(0.1 -0.1)">
       <defs>
        <path id="DejaVuSans-36" d="M 2113 2584 
Q 1688 2584 1439 2293 
Q 1191 2003 1191 1497 
Q 1191 994 1439 701 
Q 1688 409 2113 409 
Q 2538 409 2786 701 
Q 3034 994 3034 1497 
Q 3034 2003 2786 2293 
Q 2538 2584 2113 2584 
z
M 3366 4563 
L 3366 3988 
Q 3128 4100 2886 4159 
Q 2644 4219 2406 4219 
Q 1781 4219 1451 3797 
Q 1122 3375 1075 2522 
Q 1259 2794 1537 2939 
Q 1816 3084 2150 3084 
Q 2853 3084 3261 2657 
Q 3669 2231 3669 1497 
Q 3669 778 3244 343 
Q 2819 -91 2113 -91 
Q 1303 -91 875 529 
Q 447 1150 447 2328 
Q 447 3434 972 4092 
Q 1497 4750 2381 4750 
Q 2619 4750 2861 4703 
Q 3103 4656 3366 4563 
z
" transform="scale(0.015625)"/>
       </defs>
       <use xlink:href="#DejaVuSans-30"/>
       <use xlink:href="#DejaVuSans-2e" transform="translate(63.623047 0)"/>
       <use xlink:href="#DejaVuSans-36" transform="translate(95.410156 0)"/>
      </g>
     </g>
    </g>
    <g id="ytick_5">
     <g id="line2d_13">
      <g>
       <use xlink:href="#m9745d32a27" x="108" y="127.44" style="stroke: #000000; stroke-width: 0.8"/>
      </g>
     </g>
     <g id="text_14">
      <!-- 0.8 -->
      <g transform="translate(85.096875 131.239219) scale(0.1 -0.1)">
       <defs>
        <path id="DejaVuSans-38" d="M 2034 2216 
Q 1584 2216 1326 1975 
Q 1069 1734 1069 1313 
Q 1069 891 1326 650 
Q 1584 409 2034 409 
Q 2484 409 2743 651 
Q 3003 894 3003 1313 
Q 3003 1734 2745 1975 
Q 2488 2216 2034 2216 
z
M 1403 2484 
Q 997 2584 770 2862 
Q 544 3141 544 3541 
Q 544 4100 942 4425 
Q 1341 4750 2034 4750 
Q 2731 4750 3128 4425 
Q 3525 4100 3525 3541 
Q 3525 3141 3298 2862 
Q 3072 2584 2669 2484 
Q 3125 2378 3379 2068 
Q 3634 1759 3634 1313 
Q 3634 634 3220 271 
Q 2806 -91 2034 -91 
Q 1263 -91 848 271 
Q 434 634 434 1313 
Q 434 1759 690 2068 
Q 947 2378 1403 2484 
z
M 1172 3481 
Q 1172 3119 1398 2916 
Q 1625 2713 2034 2713 
Q 2441 2713 2670 2916 
Q 2900 3119 2900 3481 
Q 2900 3844 2670 4047 
Q 2441 4250 2034 4250 
Q 1625 4250 1398 4047 
Q 1172 3844 1172 3481 
z
" transform="scale(0.015625)"/>
       </defs>
       <use xlink:href="#DejaVuSans-30"/>
       <use xlink:href="#DejaVuSans-2e" transform="translate(63.623047 0)"/>
       <use xlink:href="#DejaVuSans-38" transform="translate(95.410156 0)"/>
      </g>
     </g>
    </g>
    <g id="ytick_6">
     <g id="line2d_14">
      <g>
       <use xlink:href="#m9745d32a27" x="108" y="66.96" style="stroke: #000000; stroke-width: 0.8"/>
      </g>
     </g>
     <g id="text_15">
      <!-- 1.0 -->
      <g transform="translate(85.096875 70.759219) scale(0.1 -0.1)">
       <use xlink:href="#DejaVuSans-31"/>
       <use xlink:href="#DejaVuSans-2e" transform="translate(63.623047 0)"/>
       <use xlink:href="#DejaVuSans-30" transform="translate(95.410156 0)"/>
      </g>
     </g>
    </g>
    <g id="text_16">
     <!-- ECG Signal Amplitude -->
     <g transform="translate(79.017187 272.845156) rotate(-90) scale(0.1 -0.1)">
      <defs>
       <path id="DejaVuSans-45" d="M 628 4666 
L 3578 4666 
L 3578 4134 
L 1259 4134 
L 1259 2753 
L 3481 2753 
L 3481 2222 
L 1259 2222 
L 1259 531 
L 3634 531 
L 3634 0 
L 628 0 
L 628 4666 
z
" transform="scale(0.015625)"/>
       <path id="DejaVuSans-43" d="M 4122 4306 
L 4122 3641 
Q 3803 3938 3442 4084 
Q 3081 4231 2675 4231 
Q 1875 4231 1450 3742 
Q 1025 3253 1025 2328 
Q 1025 1406 1450 917 
Q 1875 428 2675 428 
Q 3081 428 3442 575 
Q 3803 722 4122 1019 
L 4122 359 
Q 3791 134 3420 21 
Q 3050 -91 2638 -91 
Q 1578 -91 968 557 
Q 359 1206 359 2328 
Q 359 3453 968 4101 
Q 1578 4750 2638 4750 
Q 3056 4750 3426 4639 
Q 3797 4528 4122 4306 
z
" transform="scale(0.015625)"/>
       <path id="DejaVuSans-47" d="M 3809 666 
L 3809 1919 
L 2778 1919 
L 2778 2438 
L 4434 2438 
L 4434 434 
Q 4069 175 3628 42 
Q 3188 -91 2688 -91 
Q 1594 -91 976 548 
Q 359 1188 359 2328 
Q 359 3472 976 4111 
Q 1594 4750 2688 4750 
Q 3144 4750 3555 4637 
Q 3966 4525 4313 4306 
L 4313 3634 
Q 3963 3931 3569 4081 
Q 3175 4231 2741 4231 
Q 1884 4231 1454 3753 
Q 1025 3275 1025 2328 
Q 1025 1384 1454 906 
Q 1884 428 2741 428 
Q 3075 428 3337 486 
Q 3600 544 3809 666 
z
" transform="scale(0.015625)"/>
       <path id="DejaVuSans-53" d="M 3425 4513 
L 3425 3897 
Q 3066 4069 2747 4153 
Q 2428 4238 2131 4238 
Q 1616 4238 1336 4038 
Q 1056 3838 1056 3469 
Q 1056 3159 1242 3001 
Q 1428 2844 1947 2747 
L 2328 2669 
Q 3034 2534 3370 2195 
Q 3706 1856 3706 1288 
Q 3706 609 3251 259 
Q 2797 -91 1919 -91 
Q 1588 -91 1214 -16 
Q 841 59 441 206 
L 441 856 
Q 825 641 1194 531 
Q 1563 422 1919 422 
Q 2459 422 2753 634 
Q 3047 847 3047 1241 
Q 3047 1584 2836 1778 
Q 2625 1972 2144 2069 
L 1759 2144 
Q 1053 2284 737 2584 
Q 422 2884 422 3419 
Q 422 4038 858 4394 
Q 1294 4750 2059 4750 
Q 2388 4750 2728 4690 
Q 3069 4631 3425 4513 
z
" transform="scale(0.015625)"/>
       <path id="DejaVuSans-67" d="M 2906 1791 
Q 2906 2416 2648 2759 
Q 2391 3103 1925 3103 
Q 1463 3103 1205 2759 
Q 947 2416 947 1791 
Q 947 1169 1205 825 
Q 1463 481 1925 481 
Q 2391 481 2648 825 
Q 2906 1169 2906 1791 
z
M 3481 434 
Q 3481 -459 3084 -895 
Q 2688 -1331 1869 -1331 
Q 1566 -1331 1297 -1286 
Q 1028 -1241 775 -1147 
L 775 -588 
Q 1028 -725 1275 -790 
Q 1522 -856 1778 -856 
Q 2344 -856 2625 -561 
Q 2906 -266 2906 331 
L 2906 616 
Q 2728 306 2450 153 
Q 2172 0 1784 0 
Q 1141 0 747 490 
Q 353 981 353 1791 
Q 353 2603 747 3093 
Q 1141 3584 1784 3584 
Q 2172 3584 2450 3431 
Q 2728 3278 2906 2969 
L 2906 3500 
L 3481 3500 
L 3481 434 
z
" transform="scale(0.015625)"/>
       <path id="DejaVuSans-6e" d="M 3513 2113 
L 3513 0 
L 2938 0 
L 2938 2094 
Q 2938 2591 2744 2837 
Q 2550 3084 2163 3084 
Q 1697 3084 1428 2787 
Q 1159 2491 1159 1978 
L 1159 0 
L 581 0 
L 581 3500 
L 1159 3500 
L 1159 2956 
Q 1366 3272 1645 3428 
Q 1925 3584 2291 3584 
Q 2894 3584 3203 3211 
Q 3513 2838 3513 2113 
z
" transform="scale(0.015625)"/>
       <path id="DejaVuSans-41" d="M 2188 4044 
L 1331 1722 
L 3047 1722 
L 2188 4044 
z
M 1831 4666 
L 2547 4666 
L 4325 0 
L 3669 0 
L 3244 1197 
L 1141 1197 
L 716 0 
L 50 0 
L 1831 4666 
z
" transform="scale(0.015625)"/>
       <path id="DejaVuSans-74" d="M 1172 4494 
L 1172 3500 
L 2356 3500 
L 2356 3053 
L 1172 3053 
L 1172 1153 
Q 1172 725 1289 603 
Q 1406 481 1766 481 
L 2356 481 
L 2356 0 
L 1766 0 
Q 1100 0 847 248 
Q 594 497 594 1153 
L 594 3053 
L 172 3053 
L 172 3500 
L 594 3500 
L 594 4494 
L 1172 4494 
z
" transform="scale(0.015625)"/>
       <path id="DejaVuSans-75" d="M 544 1381 
L 544 3500 
L 1119 3500 
L 1119 1403 
Q 1119 906 1312 657 
Q 1506 409 1894 409 
Q 2359 409 2629 706 
Q 2900 1003 2900 1516 
L 2900 3500 
L 3475 3500 
L 3475 0 
L 2900 0 
L 2900 538 
Q 2691 219 2414 64 
Q 2138 -91 1772 -91 
Q 1169 -91 856 284 
Q 544 659 544 1381 
z
M 1991 3584 
L 1991 3584 
z
" transform="scale(0.015625)"/>
       <path id="DejaVuSans-64" d="M 2906 2969 
L 2906 4863 
L 3481 4863 
L 3481 0 
L 2906 0 
L 2906 525 
Q 2725 213 2448 61 
Q 2172 -91 1784 -91 
Q 1150 -91 751 415 
Q 353 922 353 1747 
Q 353 2572 751 3078 
Q 1150 3584 1784 3584 
Q 2172 3584 2448 3432 
Q 2725 3281 2906 2969 
z
M 947 1747 
Q 947 1113 1208 752 
Q 1469 391 1925 391 
Q 2381 391 2643 752 
Q 2906 1113 2906 1747 
Q 2906 2381 2643 2742 
Q 2381 3103 1925 3103 
Q 1469 3103 1208 2742 
Q 947 2381 947 1747 
z
" transform="scale(0.015625)"/>
      </defs>
      <use xlink:href="#DejaVuSans-45"/>
      <use xlink:href="#DejaVuSans-43" transform="translate(63.183594 0)"/>
      <use xlink:href="#DejaVuSans-47" transform="translate(133.007812 0)"/>
      <use xlink:href="#DejaVuSans-20" transform="translate(210.498047 0)"/>
      <use xlink:href="#DejaVuSans-53" transform="translate(242.285156 0)"/>
      <use xlink:href="#DejaVuSans-69" transform="translate(305.761719 0)"/>
      <use xlink:href="#DejaVuSans-67" transform="translate(333.544922 0)"/>
      <use xlink:href="#DejaVuSans-6e" transform="translate(397.021484 0)"/>
      <use xlink:href="#DejaVuSans-61" transform="translate(460.400391 0)"/>
      <use xlink:href="#DejaVuSans-6c" transform="translate(521.679688 0)"/>
      <use xlink:href="#DejaVuSans-20" transform="translate(549.462891 0)"/>
      <use xlink:href="#DejaVuSans-41" transform="translate(581.25 0)"/>
      <use xlink:href="#DejaVuSans-6d" transform="translate(649.658203 0)"/>
      <use xlink:href="#DejaVuSans-70" transform="translate(747.070312 0)"/>
      <use xlink:href="#DejaVuSans-6c" transform="translate(810.546875 0)"/>
      <use xlink:href="#DejaVuSans-69" transform="translate(838.330078 0)"/>
      <use xlink:href="#DejaVuSans-74" transform="translate(866.113281 0)"/>
      <use xlink:href="#DejaVuSans-75" transform="translate(905.322266 0)"/>
      <use xlink:href="#DejaVuSans-64" transform="translate(968.701172 0)"/>
      <use xlink:href="#DejaVuSans-65" transform="translate(1032.177734 0)"/>
     </g>
    </g>
   </g>
   <g id="line2d_15">
    <path d="M 138.436364 73.630595 
L 141.709091 89.195297 
L 144.981818 163.312949 
L 148.254545 295.242353 
L 151.527273 322.665883 
L 154.8 311.548234 
L 158.072727 323.407057 
L 161.345455 343.418823 
L 164.618182 351.571765 
L 167.890909 354.53647 
L 171.163636 356.018823 
L 174.436364 350.830588 
L 177.709091 349.348234 
L 180.981818 350.830588 
L 184.254545 354.53647 
L 187.527273 347.124705 
L 190.8 350.830588 
L 194.072727 350.830588 
L 197.345455 349.348234 
L 200.618182 348.607058 
L 203.890909 340.454117 
L 207.163636 346.383529 
L 210.436364 341.195294 
L 213.709091 337.489411 
L 216.981818 334.524706 
L 220.254545 338.230588 
L 223.527273 333.783529 
L 226.8 331.56 
L 230.072727 326.371763 
L 233.345455 330.818821 
L 236.618182 323.407057 
L 239.890909 325.630589 
L 243.163636 319.701177 
L 246.436364 325.630589 
L 249.709091 321.18353 
L 252.981818 323.407057 
L 256.254545 322.665883 
L 259.527273 326.371763 
L 262.8 323.407057 
L 266.072727 323.407057 
L 269.345455 324.88941 
L 272.618182 329.336468 
L 275.890909 330.818821 
L 279.163636 328.595294 
L 282.436364 327.854116 
L 285.709091 335.265882 
L 288.981818 336.748235 
L 292.254545 337.489411 
L 295.527273 336.748235 
L 298.8 339.712941 
L 302.072727 341.195294 
L 305.345455 338.230588 
L 308.618182 338.971764 
L 311.890909 337.489411 
L 315.163636 338.230588 
L 318.436364 333.783529 
L 321.709091 337.489411 
L 324.981818 332.301176 
L 328.254545 330.818821 
L 331.527273 326.371763 
L 334.8 324.88941 
L 338.072727 325.630589 
L 341.345455 316.736471 
L 344.618182 299.689411 
L 347.890909 297.465884 
L 351.163636 294.501179 
L 354.436364 299.689411 
L 357.709091 301.171764 
L 360.981818 309.324707 
L 364.254545 315.995293 
L 367.527273 329.336468 
L 374.072727 333.783529 
L 377.345455 332.301176 
L 380.618182 335.265882 
L 383.890909 330.077647 
L 387.163636 334.524706 
L 390.436364 344.159999 
L 393.709091 369.36 
L 396.981818 349.348234 
L 400.254545 276.71294 
L 403.527273 184.06588 
L 406.8 109.207063 
L 410.072727 66.96 
L 413.345455 79.560006 
L 416.618182 144.042348 
L 419.890909 277.454114 
L 423.163636 319.701177 
L 426.436364 307.101176 
L 429.709091 319.701177 
L 432.981818 338.230588 
L 436.254545 340.454117 
L 439.527273 341.93647 
L 442.8 338.971764 
L 446.072727 340.454117 
L 449.345455 339.712941 
L 452.618182 341.195294 
L 455.890909 339.712941 
L 459.163636 340.454117 
L 462.436364 335.265882 
L 465.709091 369.36 
L 747.163636 369.36 
L 747.163636 369.36 
" clip-path="url(#p0263294c23)" style="fill: none; stroke: #1f77b4; stroke-width: 1.5; stroke-linecap: square"/>
   </g>
   <g id="line2d_16">
    <path d="M 138.436364 66.96 
L 141.709091 167.759994 
L 144.981818 338.981919 
L 148.254545 358.313425 
L 151.527273 347.26685 
L 154.8 354.170959 
L 158.072727 363.836713 
L 161.345455 337.601095 
L 164.618182 329.316164 
L 167.890909 341.743561 
L 171.163636 333.45863 
L 174.436364 314.127122 
L 177.709091 296.176438 
L 180.981818 289.272328 
L 184.254545 292.03397 
L 190.8 289.272328 
L 194.072727 292.03397 
L 197.345455 285.12986 
L 200.618182 280.987401 
L 203.890909 282.368218 
L 207.163636 287.891511 
L 210.436364 282.368218 
L 216.981818 276.844933 
L 220.254545 276.844933 
L 223.527273 268.559997 
L 226.8 261.655887 
L 230.072727 258.894244 
L 233.345455 258.894244 
L 239.890909 236.801097 
L 243.163636 222.992876 
L 246.436364 221.612051 
L 252.981818 196.757252 
L 256.254545 202.280554 
L 259.527273 206.423022 
L 262.8 211.946307 
L 266.072727 216.088775 
L 272.618182 246.466849 
L 275.890909 256.132602 
L 279.163636 263.036712 
L 282.436364 279.606575 
L 285.709091 290.653154 
L 288.981818 298.93808 
L 292.254545 290.653154 
L 295.527273 290.653154 
L 298.8 293.414796 
L 305.345455 290.653154 
L 308.618182 290.653154 
L 311.890909 297.557259 
L 315.163636 294.795617 
L 318.436364 290.653154 
L 321.709091 303.080548 
L 324.981818 304.46137 
L 328.254545 297.557259 
L 331.527273 289.272328 
L 334.8 293.414796 
L 338.072727 294.795617 
L 347.890909 278.22575 
L 351.163636 285.12986 
L 354.436364 286.510686 
L 357.709091 289.272328 
L 360.981818 296.176438 
L 364.254545 286.510686 
L 367.527273 280.987401 
L 370.8 285.12986 
L 374.072727 283.749043 
L 377.345455 289.272328 
L 380.618182 286.510686 
L 383.890909 290.653154 
L 387.163636 290.653154 
L 390.436364 285.12986 
L 393.709091 283.749043 
L 396.981818 283.749043 
L 400.254545 276.844933 
L 403.527273 280.987401 
L 406.8 276.844933 
L 410.072727 263.036712 
L 413.345455 235.420271 
L 416.618182 160.855893 
L 419.890909 94.576441 
L 423.163636 184.329866 
L 426.436364 347.26685 
L 429.709091 369.36 
L 432.981818 350.028493 
L 436.254545 341.743561 
L 439.527273 338.981919 
L 442.8 315.507943 
L 446.072727 319.650411 
L 449.345455 319.650411 
L 452.618182 314.127122 
L 459.163636 278.22575 
L 462.436364 272.702465 
L 465.709091 280.987401 
L 468.981818 280.987401 
L 472.254545 272.702465 
L 475.527273 369.36 
L 747.163636 369.36 
L 747.163636 369.36 
" clip-path="url(#p0263294c23)" style="fill: none; stroke: #ff7f0e; stroke-width: 1.5; stroke-linecap: square"/>
   </g>
   <g id="line2d_17">
    <path d="M 138.436364 369.36 
L 141.709091 366.409756 
L 144.981818 346.864389 
L 148.254545 320.312197 
L 151.527273 296.710246 
L 154.8 281.221466 
L 158.072727 257.25073 
L 161.345455 235.492684 
L 164.618182 218.52878 
L 167.890909 199.720975 
L 171.163636 184.232191 
L 174.436364 184.232191 
L 177.709091 186.076092 
L 180.981818 183.494631 
L 184.254545 183.125851 
L 187.527273 178.331709 
L 190.8 175.381468 
L 194.072727 177.962929 
L 197.345455 173.168787 
L 200.618182 167.637067 
L 203.890909 160.261465 
L 207.163636 162.842926 
L 210.436364 153.992202 
L 213.709091 148.460482 
L 216.981818 146.985362 
L 220.254545 148.091702 
L 223.527273 145.141461 
L 230.072727 150.304383 
L 233.345455 160.630245 
L 236.618182 168.743408 
L 239.890909 171.693667 
L 243.163636 187.919993 
L 246.436364 197.139514 
L 249.709091 201.933656 
L 252.981818 208.940497 
L 256.254545 212.628298 
L 259.527273 217.05366 
L 262.8 222.216581 
L 266.072727 219.26634 
L 269.345455 220.003901 
L 272.618182 222.954151 
L 275.890909 220.741461 
L 279.163636 219.635121 
L 282.436364 220.741461 
L 285.709091 223.691711 
L 288.981818 221.847801 
L 292.254545 221.847801 
L 295.527273 225.166832 
L 298.8 222.954151 
L 302.072727 219.635121 
L 305.345455 224.429271 
L 308.618182 219.26634 
L 315.163636 222.216581 
L 318.436364 222.954151 
L 321.709091 220.372681 
L 324.981818 223.322931 
L 328.254545 224.429271 
L 331.527273 218.89756 
L 334.8 218.16 
L 338.072727 222.585362 
L 341.345455 222.954151 
L 344.618182 219.635121 
L 347.890909 218.52878 
L 351.163636 222.585362 
L 354.436364 225.904392 
L 357.709091 218.52878 
L 360.981818 216.684879 
L 364.254545 219.635121 
L 367.527273 211.521958 
L 370.8 204.146337 
L 374.072727 204.515117 
L 377.345455 201.196096 
L 380.618182 193.082933 
L 383.890909 196.033174 
L 387.163636 196.770734 
L 390.436364 197.877074 
L 393.709091 203.408777 
L 396.981818 208.202918 
L 400.254545 213.365858 
L 403.527273 218.16 
L 406.8 218.52878 
L 413.345455 216.316099 
L 416.618182 217.79122 
L 419.890909 210.784397 
L 423.163636 187.919993 
L 426.436364 141.084879 
L 429.709091 96.831227 
L 432.981818 66.96 
L 436.254545 72.122922 
L 439.527273 132.971698 
L 442.8 201.196096 
L 446.072727 214.840979 
L 449.345455 215.578539 
L 452.618182 224.060491 
L 455.890909 224.429271 
L 459.163636 223.691711 
L 462.436364 224.429271 
L 465.709091 228.117073 
L 468.981818 227.748293 
L 472.254545 224.798051 
L 475.527273 225.535612 
L 478.8 225.535612 
L 482.072727 369.36 
L 747.163636 369.36 
L 747.163636 369.36 
" clip-path="url(#p0263294c23)" style="fill: none; stroke: #2ca02c; stroke-width: 1.5; stroke-linecap: square"/>
   </g>
   <g id="line2d_18">
    <path d="M 138.436364 66.96 
L 141.709091 97.275782 
L 144.981818 175.338948 
L 148.254545 274.244213 
L 151.527273 338.665263 
L 154.8 336.770527 
L 158.072727 335.633684 
L 161.345455 347.759999 
L 164.618182 350.033684 
L 167.890909 351.549474 
L 171.163636 356.096842 
L 174.436364 359.128421 
L 177.709091 358.370527 
L 180.981818 361.023158 
L 184.254545 362.538947 
L 187.527273 366.707368 
L 190.8 367.465263 
L 194.072727 365.191579 
L 197.345455 369.36 
L 200.618182 369.36 
L 207.163636 364.054737 
L 210.436364 361.023158 
L 213.709091 356.096842 
L 216.981818 350.791579 
L 220.254545 343.212632 
L 223.527273 335.254736 
L 226.8 329.949475 
L 230.072727 320.096841 
L 233.345455 309.107368 
L 236.618182 303.802108 
L 239.890909 297.36 
L 243.163636 289.78105 
L 246.436364 286.370527 
L 249.709091 283.338951 
L 252.981818 285.991582 
L 256.254545 285.612636 
L 259.527273 285.991582 
L 262.8 292.43368 
L 266.072727 297.738946 
L 269.345455 299.633684 
L 272.618182 306.075788 
L 275.890909 310.244211 
L 279.163636 313.654738 
L 282.436364 314.79158 
L 285.709091 311.759999 
L 288.981818 314.79158 
L 292.254545 311.002107 
L 295.527273 301.149473 
L 298.8 296.223158 
L 302.072727 292.812635 
L 305.345455 289.78105 
L 308.618182 289.402104 
L 311.890909 294.328419 
L 315.163636 307.970526 
L 318.436364 314.79158 
L 321.709091 313.275792 
L 324.981818 312.896841 
L 328.254545 315.928422 
L 331.527273 314.79158 
L 334.8 314.412629 
L 338.072727 313.275792 
L 341.345455 314.033683 
L 344.618182 318.959998 
L 347.890909 317.823156 
L 351.163636 278.791582 
L 354.436364 187.086308 
L 357.709091 102.581061 
L 360.981818 130.623149 
L 364.254545 218.538946 
L 367.527273 301.149473 
L 370.8 355.338948 
L 374.072727 336.770527 
L 377.345455 322.370525 
L 380.618182 331.844209 
L 383.890909 331.844209 
L 387.163636 332.223158 
L 390.436364 333.36 
L 393.709091 336.012633 
L 396.981818 339.044211 
L 400.254545 369.36 
L 747.163636 369.36 
L 747.163636 369.36 
" clip-path="url(#p0263294c23)" style="fill: none; stroke: #d62728; stroke-width: 1.5; stroke-linecap: square"/>
   </g>
   <g id="line2d_19">
    <path d="M 138.436364 153.866752 
L 141.709091 179.140646 
L 144.981818 209.735375 
L 148.254545 243.877305 
L 151.527273 283.34006 
L 154.8 319.699001 
L 158.072727 344.972904 
L 161.345455 359.605162 
L 164.618182 369.36 
L 167.890909 364.482581 
L 171.163636 356.057948 
L 174.436364 324.133019 
L 177.709091 290.877891 
L 180.981818 270.481412 
L 184.254545 258.509558 
L 187.527273 238.113078 
L 190.8 221.707211 
L 194.072727 203.084337 
L 197.345455 193.329507 
L 200.618182 184.018061 
L 203.890909 180.914252 
L 207.163636 177.367041 
L 210.436364 178.253844 
L 213.709091 173.376429 
L 216.981818 172.933028 
L 220.254545 169.8292 
L 223.527273 171.602824 
L 226.8 167.168792 
L 230.072727 164.951786 
L 233.345455 160.074371 
L 236.618182 160.074371 
L 239.890909 154.753555 
L 243.163636 154.753555 
L 246.436364 146.328911 
L 249.709091 141.894898 
L 252.981818 132.140051 
L 256.254545 127.706037 
L 259.527273 118.83801 
L 262.8 113.960578 
L 266.072727 106.866156 
L 269.345455 106.422755 
L 272.618182 100.215136 
L 275.890909 103.318946 
L 279.163636 101.988742 
L 282.436364 106.422755 
L 285.709091 109.083163 
L 288.981818 121.055017 
L 292.254545 131.253248 
L 295.527273 143.668503 
L 298.8 153.423351 
L 302.072727 165.395187 
L 305.345455 171.602824 
L 308.618182 182.687857 
L 311.890909 186.235068 
L 315.163636 192.886106 
L 318.436364 195.103112 
L 321.709091 200.423929 
L 324.981818 198.206922 
L 328.254545 202.640935 
L 331.527273 200.86733 
L 334.8 202.640935 
L 338.072727 200.86733 
L 341.345455 204.857942 
L 344.618182 203.971139 
L 347.890909 206.188146 
L 351.163636 202.640935 
L 354.436364 207.074949 
L 357.709091 204.857942 
L 360.981818 206.631547 
L 364.254545 205.301343 
L 367.527273 208.405153 
L 370.8 204.857942 
L 374.072727 207.961751 
L 377.345455 206.631547 
L 380.618182 207.51835 
L 383.890909 203.971139 
L 387.163636 206.188146 
L 390.436364 207.074949 
L 393.709091 208.848572 
L 396.981818 208.405153 
L 400.254545 209.735375 
L 403.527273 207.51835 
L 406.8 210.178776 
L 410.072727 208.405153 
L 413.345455 211.50898 
L 416.618182 208.848572 
L 419.890909 211.952381 
L 423.163636 208.405153 
L 426.436364 210.622177 
L 429.709091 209.735375 
L 432.981818 211.50898 
L 436.254545 206.631547 
L 439.527273 207.074949 
L 442.8 203.527738 
L 446.072727 207.961751 
L 449.345455 203.971139 
L 452.618182 207.51835 
L 455.890909 204.414541 
L 459.163636 207.51835 
L 462.436364 201.754133 
L 465.709091 199.980527 
L 468.981818 171.602824 
L 472.254545 66.96 
L 475.527273 93.120697 
L 478.8 122.385221 
L 482.072727 143.668503 
L 485.345455 171.602824 
L 488.618182 195.546514 
L 495.163636 259.839762 
L 498.436364 303.293138 
L 501.709091 329.897245 
L 504.981818 351.62393 
L 508.254545 353.840939 
L 511.527273 350.737126 
L 514.8 336.991671 
L 518.072727 311.717772 
L 521.345455 278.462636 
L 524.618182 271.368214 
L 527.890909 262.056777 
L 531.163636 251.415136 
L 534.436364 234.565867 
L 537.709091 221.707211 
L 540.981818 204.414541 
L 544.254545 197.320119 
L 547.527273 185.348265 
L 550.8 183.131258 
L 554.072727 369.36 
L 747.163636 369.36 
L 747.163636 369.36 
" clip-path="url(#p0263294c23)" style="fill: none; stroke: #9467bd; stroke-width: 1.5; stroke-linecap: square"/>
   </g>
   <g id="patch_3">
    <path d="M 108 384.48 
L 108 51.84 
" style="fill: none; stroke: #000000; stroke-width: 0.8; stroke-linejoin: miter; stroke-linecap: square"/>
   </g>
   <g id="patch_4">
    <path d="M 777.6 384.48 
L 777.6 51.84 
" style="fill: none; stroke: #000000; stroke-width: 0.8; stroke-linejoin: miter; stroke-linecap: square"/>
   </g>
   <g id="patch_5">
    <path d="M 108 384.48 
L 777.6 384.48 
" style="fill: none; stroke: #000000; stroke-width: 0.8; stroke-linejoin: miter; stroke-linecap: square"/>
   </g>
   <g id="patch_6">
    <path d="M 108 51.84 
L 777.6 51.84 
" style="fill: none; stroke: #000000; stroke-width: 0.8; stroke-linejoin: miter; stroke-linecap: square"/>
   </g>
   <g id="text_17">
    <!-- Sample ECG Signals for Each Class in the ECG Heartbeat Dataset -->
    <g transform="translate(246.770625 45.84) scale(0.12 -0.12)">
     <defs>
      <path id="DejaVuSans-66" d="M 2375 4863 
L 2375 4384 
L 1825 4384 
Q 1516 4384 1395 4259 
Q 1275 4134 1275 3809 
L 1275 3500 
L 2222 3500 
L 2222 3053 
L 1275 3053 
L 1275 0 
L 697 0 
L 697 3053 
L 147 3053 
L 147 3500 
L 697 3500 
L 697 3744 
Q 697 4328 969 4595 
Q 1241 4863 1831 4863 
L 2375 4863 
z
" transform="scale(0.015625)"/>
      <path id="DejaVuSans-6f" d="M 1959 3097 
Q 1497 3097 1228 2736 
Q 959 2375 959 1747 
Q 959 1119 1226 758 
Q 1494 397 1959 397 
Q 2419 397 2687 759 
Q 2956 1122 2956 1747 
Q 2956 2369 2687 2733 
Q 2419 3097 1959 3097 
z
M 1959 3584 
Q 2709 3584 3137 3096 
Q 3566 2609 3566 1747 
Q 3566 888 3137 398 
Q 2709 -91 1959 -91 
Q 1206 -91 779 398 
Q 353 888 353 1747 
Q 353 2609 779 3096 
Q 1206 3584 1959 3584 
z
" transform="scale(0.015625)"/>
      <path id="DejaVuSans-72" d="M 2631 2963 
Q 2534 3019 2420 3045 
Q 2306 3072 2169 3072 
Q 1681 3072 1420 2755 
Q 1159 2438 1159 1844 
L 1159 0 
L 581 0 
L 581 3500 
L 1159 3500 
L 1159 2956 
Q 1341 3275 1631 3429 
Q 1922 3584 2338 3584 
Q 2397 3584 2469 3576 
Q 2541 3569 2628 3553 
L 2631 2963 
z
" transform="scale(0.015625)"/>
      <path id="DejaVuSans-63" d="M 3122 3366 
L 3122 2828 
Q 2878 2963 2633 3030 
Q 2388 3097 2138 3097 
Q 1578 3097 1268 2742 
Q 959 2388 959 1747 
Q 959 1106 1268 751 
Q 1578 397 2138 397 
Q 2388 397 2633 464 
Q 2878 531 3122 666 
L 3122 134 
Q 2881 22 2623 -34 
Q 2366 -91 2075 -91 
Q 1284 -91 818 406 
Q 353 903 353 1747 
Q 353 2603 823 3093 
Q 1294 3584 2113 3584 
Q 2378 3584 2631 3529 
Q 2884 3475 3122 3366 
z
" transform="scale(0.015625)"/>
      <path id="DejaVuSans-68" d="M 3513 2113 
L 3513 0 
L 2938 0 
L 2938 2094 
Q 2938 2591 2744 2837 
Q 2550 3084 2163 3084 
Q 1697 3084 1428 2787 
Q 1159 2491 1159 1978 
L 1159 0 
L 581 0 
L 581 4863 
L 1159 4863 
L 1159 2956 
Q 1366 3272 1645 3428 
Q 1925 3584 2291 3584 
Q 2894 3584 3203 3211 
Q 3513 2838 3513 2113 
z
" transform="scale(0.015625)"/>
      <path id="DejaVuSans-48" d="M 628 4666 
L 1259 4666 
L 1259 2753 
L 3553 2753 
L 3553 4666 
L 4184 4666 
L 4184 0 
L 3553 0 
L 3553 2222 
L 1259 2222 
L 1259 0 
L 628 0 
L 628 4666 
z
" transform="scale(0.015625)"/>
      <path id="DejaVuSans-62" d="M 3116 1747 
Q 3116 2381 2855 2742 
Q 2594 3103 2138 3103 
Q 1681 3103 1420 2742 
Q 1159 2381 1159 1747 
Q 1159 1113 1420 752 
Q 1681 391 2138 391 
Q 2594 391 2855 752 
Q 3116 1113 3116 1747 
z
M 1159 2969 
Q 1341 3281 1617 3432 
Q 1894 3584 2278 3584 
Q 2916 3584 3314 3078 
Q 3713 2572 3713 1747 
Q 3713 922 3314 415 
Q 2916 -91 2278 -91 
Q 1894 -91 1617 61 
Q 1341 213 1159 525 
L 1159 0 
L 581 0 
L 581 4863 
L 1159 4863 
L 1159 2969 
z
" transform="scale(0.015625)"/>
      <path id="DejaVuSans-44" d="M 1259 4147 
L 1259 519 
L 2022 519 
Q 2988 519 3436 956 
Q 3884 1394 3884 2338 
Q 3884 3275 3436 3711 
Q 2988 4147 2022 4147 
L 1259 4147 
z
M 628 4666 
L 1925 4666 
Q 3281 4666 3915 4102 
Q 4550 3538 4550 2338 
Q 4550 1131 3912 565 
Q 3275 0 1925 0 
L 628 0 
L 628 4666 
z
" transform="scale(0.015625)"/>
     </defs>
     <use xlink:href="#DejaVuSans-53"/>
     <use xlink:href="#DejaVuSans-61" transform="translate(63.476562 0)"/>
     <use xlink:href="#DejaVuSans-6d" transform="translate(124.755859 0)"/>
     <use xlink:href="#DejaVuSans-70" transform="translate(222.167969 0)"/>
     <use xlink:href="#DejaVuSans-6c" transform="translate(285.644531 0)"/>
     <use xlink:href="#DejaVuSans-65" transform="translate(313.427734 0)"/>
     <use xlink:href="#DejaVuSans-20" transform="translate(374.951172 0)"/>
     <use xlink:href="#DejaVuSans-45" transform="translate(406.738281 0)"/>
     <use xlink:href="#DejaVuSans-43" transform="translate(469.921875 0)"/>
     <use xlink:href="#DejaVuSans-47" transform="translate(539.746094 0)"/>
     <use xlink:href="#DejaVuSans-20" transform="translate(617.236328 0)"/>
     <use xlink:href="#DejaVuSans-53" transform="translate(649.023438 0)"/>
     <use xlink:href="#DejaVuSans-69" transform="translate(712.5 0)"/>
     <use xlink:href="#DejaVuSans-67" transform="translate(740.283203 0)"/>
     <use xlink:href="#DejaVuSans-6e" transform="translate(803.759766 0)"/>
     <use xlink:href="#DejaVuSans-61" transform="translate(867.138672 0)"/>
     <use xlink:href="#DejaVuSans-6c" transform="translate(928.417969 0)"/>
     <use xlink:href="#DejaVuSans-73" transform="translate(956.201172 0)"/>
     <use xlink:href="#DejaVuSans-20" transform="translate(1008.300781 0)"/>
     <use xlink:href="#DejaVuSans-66" transform="translate(1040.087891 0)"/>
     <use xlink:href="#DejaVuSans-6f" transform="translate(1075.292969 0)"/>
     <use xlink:href="#DejaVuSans-72" transform="translate(1136.474609 0)"/>
     <use xlink:href="#DejaVuSans-20" transform="translate(1177.587891 0)"/>
     <use xlink:href="#DejaVuSans-45" transform="translate(1209.375 0)"/>
     <use xlink:href="#DejaVuSans-61" transform="translate(1272.558594 0)"/>
     <use xlink:href="#DejaVuSans-63" transform="translate(1333.837891 0)"/>
     <use xlink:href="#DejaVuSans-68" transform="translate(1388.818359 0)"/>
     <use xlink:href="#DejaVuSans-20" transform="translate(1452.197266 0)"/>
     <use xlink:href="#DejaVuSans-43" transform="translate(1483.984375 0)"/>
     <use xlink:href="#DejaVuSans-6c" transform="translate(1553.808594 0)"/>
     <use xlink:href="#DejaVuSans-61" transform="translate(1581.591797 0)"/>
     <use xlink:href="#DejaVuSans-73" transform="translate(1642.871094 0)"/>
     <use xlink:href="#DejaVuSans-73" transform="translate(1694.970703 0)"/>
     <use xlink:href="#DejaVuSans-20" transform="translate(1747.070312 0)"/>
     <use xlink:href="#DejaVuSans-69" transform="translate(1778.857422 0)"/>
     <use xlink:href="#DejaVuSans-6e" transform="translate(1806.640625 0)"/>
     <use xlink:href="#DejaVuSans-20" transform="translate(1870.019531 0)"/>
     <use xlink:href="#DejaVuSans-74" transform="translate(1901.806641 0)"/>
     <use xlink:href="#DejaVuSans-68" transform="translate(1941.015625 0)"/>
     <use xlink:href="#DejaVuSans-65" transform="translate(2004.394531 0)"/>
     <use xlink:href="#DejaVuSans-20" transform="translate(2065.917969 0)"/>
     <use xlink:href="#DejaVuSans-45" transform="translate(2097.705078 0)"/>
     <use xlink:href="#DejaVuSans-43" transform="translate(2160.888672 0)"/>
     <use xlink:href="#DejaVuSans-47" transform="translate(2230.712891 0)"/>
     <use xlink:href="#DejaVuSans-20" transform="translate(2308.203125 0)"/>
     <use xlink:href="#DejaVuSans-48" transform="translate(2339.990234 0)"/>
     <use xlink:href="#DejaVuSans-65" transform="translate(2415.185547 0)"/>
     <use xlink:href="#DejaVuSans-61" transform="translate(2476.708984 0)"/>
     <use xlink:href="#DejaVuSans-72" transform="translate(2537.988281 0)"/>
     <use xlink:href="#DejaVuSans-74" transform="translate(2579.101562 0)"/>
     <use xlink:href="#DejaVuSans-62" transform="translate(2618.310547 0)"/>
     <use xlink:href="#DejaVuSans-65" transform="translate(2681.787109 0)"/>
     <use xlink:href="#DejaVuSans-61" transform="translate(2743.310547 0)"/>
     <use xlink:href="#DejaVuSans-74" transform="translate(2804.589844 0)"/>
     <use xlink:href="#DejaVuSans-20" transform="translate(2843.798828 0)"/>
     <use xlink:href="#DejaVuSans-44" transform="translate(2875.585938 0)"/>
     <use xlink:href="#DejaVuSans-61" transform="translate(2952.587891 0)"/>
     <use xlink:href="#DejaVuSans-74" transform="translate(3013.867188 0)"/>
     <use xlink:href="#DejaVuSans-61" transform="translate(3053.076172 0)"/>
     <use xlink:href="#DejaVuSans-73" transform="translate(3114.355469 0)"/>
     <use xlink:href="#DejaVuSans-65" transform="translate(3166.455078 0)"/>
     <use xlink:href="#DejaVuSans-74" transform="translate(3227.978516 0)"/>
    </g>
   </g>
   <g id="legend_1">
    <g id="patch_7">
     <path d="M 693.210938 133.230625 
L 770.6 133.230625 
Q 772.6 133.230625 772.6 131.230625 
L 772.6 58.84 
Q 772.6 56.84 770.6 56.84 
L 693.210938 56.84 
Q 691.210938 56.84 691.210938 58.84 
L 691.210938 131.230625 
Q 691.210938 133.230625 693.210938 133.230625 
z
" style="fill: #ffffff; opacity: 0.8; stroke: #cccccc; stroke-linejoin: miter"/>
    </g>
    <g id="line2d_20">
     <path d="M 695.210938 64.938437 
L 705.210938 64.938437 
L 715.210938 64.938437 
" style="fill: none; stroke: #1f77b4; stroke-width: 1.5; stroke-linecap: square"/>
    </g>
    <g id="text_18">
     <!-- Class 0.0 -->
     <g transform="translate(723.210938 68.438437) scale(0.1 -0.1)">
      <use xlink:href="#DejaVuSans-43"/>
      <use xlink:href="#DejaVuSans-6c" transform="translate(69.824219 0)"/>
      <use xlink:href="#DejaVuSans-61" transform="translate(97.607422 0)"/>
      <use xlink:href="#DejaVuSans-73" transform="translate(158.886719 0)"/>
      <use xlink:href="#DejaVuSans-73" transform="translate(210.986328 0)"/>
      <use xlink:href="#DejaVuSans-20" transform="translate(263.085938 0)"/>
      <use xlink:href="#DejaVuSans-30" transform="translate(294.873047 0)"/>
      <use xlink:href="#DejaVuSans-2e" transform="translate(358.496094 0)"/>
      <use xlink:href="#DejaVuSans-30" transform="translate(390.283203 0)"/>
     </g>
    </g>
    <g id="line2d_21">
     <path d="M 695.210938 79.616562 
L 705.210938 79.616562 
L 715.210938 79.616562 
" style="fill: none; stroke: #ff7f0e; stroke-width: 1.5; stroke-linecap: square"/>
    </g>
    <g id="text_19">
     <!-- Class 1.0 -->
     <g transform="translate(723.210938 83.116562) scale(0.1 -0.1)">
      <use xlink:href="#DejaVuSans-43"/>
      <use xlink:href="#DejaVuSans-6c" transform="translate(69.824219 0)"/>
      <use xlink:href="#DejaVuSans-61" transform="translate(97.607422 0)"/>
      <use xlink:href="#DejaVuSans-73" transform="translate(158.886719 0)"/>
      <use xlink:href="#DejaVuSans-73" transform="translate(210.986328 0)"/>
      <use xlink:href="#DejaVuSans-20" transform="translate(263.085938 0)"/>
      <use xlink:href="#DejaVuSans-31" transform="translate(294.873047 0)"/>
      <use xlink:href="#DejaVuSans-2e" transform="translate(358.496094 0)"/>
      <use xlink:href="#DejaVuSans-30" transform="translate(390.283203 0)"/>
     </g>
    </g>
    <g id="line2d_22">
     <path d="M 695.210938 94.294687 
L 705.210938 94.294687 
L 715.210938 94.294687 
" style="fill: none; stroke: #2ca02c; stroke-width: 1.5; stroke-linecap: square"/>
    </g>
    <g id="text_20">
     <!-- Class 2.0 -->
     <g transform="translate(723.210938 97.794687) scale(0.1 -0.1)">
      <use xlink:href="#DejaVuSans-43"/>
      <use xlink:href="#DejaVuSans-6c" transform="translate(69.824219 0)"/>
      <use xlink:href="#DejaVuSans-61" transform="translate(97.607422 0)"/>
      <use xlink:href="#DejaVuSans-73" transform="translate(158.886719 0)"/>
      <use xlink:href="#DejaVuSans-73" transform="translate(210.986328 0)"/>
      <use xlink:href="#DejaVuSans-20" transform="translate(263.085938 0)"/>
      <use xlink:href="#DejaVuSans-32" transform="translate(294.873047 0)"/>
      <use xlink:href="#DejaVuSans-2e" transform="translate(358.496094 0)"/>
      <use xlink:href="#DejaVuSans-30" transform="translate(390.283203 0)"/>
     </g>
    </g>
    <g id="line2d_23">
     <path d="M 695.210938 108.972812 
L 705.210938 108.972812 
L 715.210938 108.972812 
" style="fill: none; stroke: #d62728; stroke-width: 1.5; stroke-linecap: square"/>
    </g>
    <g id="text_21">
     <!-- Class 3.0 -->
     <g transform="translate(723.210938 112.472812) scale(0.1 -0.1)">
      <defs>
       <path id="DejaVuSans-33" d="M 2597 2516 
Q 3050 2419 3304 2112 
Q 3559 1806 3559 1356 
Q 3559 666 3084 287 
Q 2609 -91 1734 -91 
Q 1441 -91 1130 -33 
Q 819 25 488 141 
L 488 750 
Q 750 597 1062 519 
Q 1375 441 1716 441 
Q 2309 441 2620 675 
Q 2931 909 2931 1356 
Q 2931 1769 2642 2001 
Q 2353 2234 1838 2234 
L 1294 2234 
L 1294 2753 
L 1863 2753 
Q 2328 2753 2575 2939 
Q 2822 3125 2822 3475 
Q 2822 3834 2567 4026 
Q 2313 4219 1838 4219 
Q 1578 4219 1281 4162 
Q 984 4106 628 3988 
L 628 4550 
Q 988 4650 1302 4700 
Q 1616 4750 1894 4750 
Q 2613 4750 3031 4423 
Q 3450 4097 3450 3541 
Q 3450 3153 3228 2886 
Q 3006 2619 2597 2516 
z
" transform="scale(0.015625)"/>
      </defs>
      <use xlink:href="#DejaVuSans-43"/>
      <use xlink:href="#DejaVuSans-6c" transform="translate(69.824219 0)"/>
      <use xlink:href="#DejaVuSans-61" transform="translate(97.607422 0)"/>
      <use xlink:href="#DejaVuSans-73" transform="translate(158.886719 0)"/>
      <use xlink:href="#DejaVuSans-73" transform="translate(210.986328 0)"/>
      <use xlink:href="#DejaVuSans-20" transform="translate(263.085938 0)"/>
      <use xlink:href="#DejaVuSans-33" transform="translate(294.873047 0)"/>
      <use xlink:href="#DejaVuSans-2e" transform="translate(358.496094 0)"/>
      <use xlink:href="#DejaVuSans-30" transform="translate(390.283203 0)"/>
     </g>
    </g>
    <g id="line2d_24">
     <path d="M 695.210938 123.650937 
L 705.210938 123.650937 
L 715.210938 123.650937 
" style="fill: none; stroke: #9467bd; stroke-width: 1.5; stroke-linecap: square"/>
    </g>
    <g id="text_22">
     <!-- Class 4.0 -->
     <g transform="translate(723.210938 127.150937) scale(0.1 -0.1)">
      <use xlink:href="#DejaVuSans-43"/>
      <use xlink:href="#DejaVuSans-6c" transform="translate(69.824219 0)"/>
      <use xlink:href="#DejaVuSans-61" transform="translate(97.607422 0)"/>
      <use xlink:href="#DejaVuSans-73" transform="translate(158.886719 0)"/>
      <use xlink:href="#DejaVuSans-73" transform="translate(210.986328 0)"/>
      <use xlink:href="#DejaVuSans-20" transform="translate(263.085938 0)"/>
      <use xlink:href="#DejaVuSans-34" transform="translate(294.873047 0)"/>
      <use xlink:href="#DejaVuSans-2e" transform="translate(358.496094 0)"/>
      <use xlink:href="#DejaVuSans-30" transform="translate(390.283203 0)"/>
     </g>
    </g>
   </g>
  </g>
 </g>
 <defs>
  <clipPath id="p0263294c23">
   <rect x="108" y="51.84" width="669.6" height="332.64"/>
  </clipPath>
 </defs>
</svg>
